Coordinates
version=1
nRows=10
nColumns=63
inDegrees=yes

Units are S.I. units (second, meters, Newtons, ...)
If the header above contains a line with 'inDegrees', this indicates whether rotational values are in degrees (yes) or radians (no).

endheader
time	pelvis_tilt	pelvis_list	pelvis_rotation	pelvis_tx	pelvis_ty	pelvis_tz	hip_flexion_r	hip_adduction_r	hip_rotation_r	knee_angle_r	knee_angle_r_beta	ankle_angle_r	subtalar_angle_r	mtp_angle_r	hip_flexion_l	hip_adduction_l	hip_rotation_l	knee_angle_l	knee_angle_l_beta	ankle_angle_l	subtalar_angle_l	mtp_angle_l	L5_S1_Flex_Ext	L5_S1_Lat_Bending	L5_S1_axial_rotation	L4_L5_Flex_Ext	L4_L5_Lat_Bending	L4_L5_axial_rotation	L3_L4_Flex_Ext	L3_L4_Lat_Bending	L3_L4_axial_rotation	L2_L3_Flex_Ext	L2_L3_Lat_Bending	L2_L3_axial_rotation	L1_L2_Flex_Ext	L1_L2_Lat_Bending	L1_L2_axial_rotation	L1_T12_Flex_Ext	L1_T12_Lat_Bending	L1_T12_axial_rotation	Abs_r3	Abs_r2	Abs_r1	Abs_t1	Abs_t2	neck_flexion	neck_bending	neck_rotation	arm_flex_r	arm_add_r	arm_rot_r	elbow_flex_r	pro_sup_r	wrist_flex_r	wrist_dev_r	arm_flex_l	arm_add_l	arm_rot_l	elbow_flex_l	pro_sup_l	wrist_flex_l	wrist_dev_l
      2.89830508	      2.48071861	      3.90225587	    103.21517212	      0.26469859	      0.79064389	      0.70143136	     -7.16042309	      7.70269201	    -33.48396307	      8.68439271	      0.15157125	     25.89345742	     17.72936651	      0.00000000	     -8.95910369	     -8.73783206	     21.74535581	      1.66488195	      0.02905767	     17.33819418	    -13.93131751	      0.00000000	     -0.14089399	     -0.13066277	      1.01748456	     -0.26165422	     -0.17378148	      1.08107734	     -0.23147473	     -0.31769346	      1.08107734	     -0.16102774	     -0.31769346	      0.89029899	     -0.13083416	     -0.26644752	      0.82670620	     -0.08050682	     -0.20239663	      0.76311342	     -1.00639166	     -1.47808339	      5.65894387	      0.00000000	      0.00000000	      6.10893959	    -21.17314199	     11.20188620	     96.14126412	   -107.81470416	     -1.43410667	    149.51270575	     61.99431159	     59.29347447	    -18.16623541	     24.95250249	    -31.07281762	      3.60732253	    149.85061134	     82.72611968	      7.96987152	     -1.24739519
      2.91525424	      2.26064096	      3.66346595	    103.42489966	      0.26527133	      0.79059744	      0.70171401	     -6.91377422	      7.47872050	    -33.72856027	      8.71866994	      0.15216950	     25.97736526	     17.73830396	      0.00000000	     -8.63978552	     -8.50909280	     21.82438540	      1.74481861	      0.03045283	     17.27869237	    -13.76486411	      0.00000000	     -0.13645611	     -0.16511457	      0.96682418	     -0.25341263	     -0.21960238	      1.02725069	     -0.22418374	     -0.40145957	      1.02725069	     -0.15595568	     -0.40145957	      0.84597116	     -0.12671314	     -0.33670163	      0.78554465	     -0.07797102	     -0.25576247	      0.72511814	     -0.97469232	     -1.86780904	      5.37718606	      0.00000000	      0.00000000	      5.90603201	    -20.95459243	     10.71904282	     95.33632620	   -108.09896886	     -0.72746418	    148.94492711	     49.91825815	     57.03737777	     -9.75231384	     25.12105546	    -31.89888754	      1.74635250	    149.84631089	     84.13373445	      6.07570266	     -2.27381881
      2.93220339	      2.14395391	      3.58957946	    103.51950669	      0.26565015	      0.79041409	      0.70215561	     -6.79497341	      7.35438670	    -33.81351920	      8.79754635	      0.15354615	     26.08968246	     17.71259554	      0.00000000	     -8.50639565	     -8.39577071	     21.90435101	      1.79087721	      0.03125670	     17.28652229	    -13.71174434	      0.00000000	     -0.14073109	     -0.18555115	      0.96321341	     -0.26135171	     -0.24678303	      1.02341425	     -0.23120711	     -0.45114907	      1.02341425	     -0.16084157	     -0.45114907	      0.84281173	     -0.13068289	     -0.37837591	      0.78261089	     -0.08041375	     -0.28741873	      0.72241006	     -1.00522812	     -2.09899172	      5.35710402	      0.00000000	      0.00000000	      5.24158878	    -20.55197555	      9.96262703	     94.82816964	   -108.38878954	      0.33522590	    148.35836733	     35.80955723	     56.01471737	      1.29890710	     25.12522860	    -32.32979600	      1.84753433	    149.84555004	     84.68902909	      6.39688429	     -2.07513793
      2.94915254	      1.92388490	      3.55144878	    103.55890310	      0.26639669	      0.79028338	      0.70265051	     -6.72758695	      7.14051594	    -33.89396072	      8.89210556	      0.15519652	     26.18898103	     17.66529301	      0.00000000	     -8.45003976	     -8.19771188	     22.00526510	      1.82564186	      0.03186346	     17.27971500	    -13.71501507	      0.00000000	     -0.14458625	     -0.23244152	      0.95661777	     -0.26851113	     -0.30914722	      1.01640638	     -0.23754076	     -0.56515832	      1.01640638	     -0.16524763	     -0.56515832	      0.83704055	     -0.13426279	     -0.47399475	      0.77725194	     -0.08261659	     -0.36005192	      0.71746333	     -1.03276515	     -2.62942499	      5.32042107	      0.00000000	      0.00000000	      4.17236082	    -19.70062312	      9.00525867	     96.42117532	   -108.36324226	      3.09374872	    147.81074850	     28.55105085	     55.01074323	      7.13993139	     25.03085186	    -32.85574391	      3.67068409	    149.83798153	     85.67843946	      8.36891254	     -0.05181419
      2.96610169	      1.87095519	      3.58855043	    103.51146651	      0.26684366	      0.78997157	      0.70309820	     -6.69897789	      7.07479118	    -33.79622311	      9.02082636	      0.15744312	     26.39278370	     17.62939806	      0.00000000	     -8.46277115	     -8.15629625	     21.85559137	      1.86213988	      0.03250047	     17.31296224	    -13.65143934	      0.00000000	     -0.14840200	     -0.24784242	      0.94609800	     -0.27559736	     -0.32963042	      1.00522913	     -0.24380965	     -0.60260407	      1.00522913	     -0.16960865	     -0.60260407	      0.82783575	     -0.13780610	     -0.50540027	      0.76870463	     -0.08479690	     -0.38390791	      0.70957350	     -1.06002066	     -2.80364306	      5.26191326	      0.00000000	      0.00000000	      3.14834517	    -19.26782839	      8.48419207	     96.44404177	   -108.19954634	      4.57913335	    147.68184237	     13.58192265	     54.44976763	     21.25614791	     24.69980332	    -33.50008085	      6.49490990	    149.82416051	     87.24769292	     11.38016626	      3.91230874
      2.98305085	      1.75266976	      3.60285315	    103.46648939	      0.26719823	      0.78957954	      0.70361620	     -6.65704617	      6.92284160	    -33.70980062	      9.16313968	      0.15992696	     26.54235502	     17.60297022	      0.00000000	     -8.46776635	     -8.02880112	     21.70935645	      1.91357430	      0.03339817	     17.38293049	    -13.71803570	      0.00000000	     -0.15211332	     -0.27166439	      0.92749970	     -0.28248965	     -0.36131363	      0.98546843	     -0.24990698	     -0.66052479	      0.98546843	     -0.17385032	     -0.66052479	      0.81156223	     -0.14125243	     -0.55397801	      0.75359350	     -0.08691755	     -0.42080813	      0.69562477	     -1.08653026	     -3.07312186	      5.15847506	      0.00000000	      0.00000000	      2.20599815	    -18.70606744	      8.23882936	     97.33939030	   -107.99052762	      5.67991656	    147.16535754	     14.26509154	     55.33662140	     22.43794229	     24.60772360	    -34.25065082	      9.91166316	    149.80291004	     88.17929919	     14.76237039	      9.60950818
      3.00000000	      1.49560048	      3.52696409	    103.23701179	      0.26837762	      0.78933643	      0.70390157	     -6.56438107	      6.63338038	    -33.57451280	      9.28805293	      0.16210710	     26.77800976	     17.56028889	      0.00000000	     -8.43788942	     -7.75456453	     21.33619323	      2.01793014	      0.03521953	     17.31986469	    -13.58751875	      0.00000000	     -0.14788031	     -0.32942604	      0.99205208	     -0.27462852	     -0.43813664	      1.05405533	     -0.24295256	     -0.80096648	      1.05405533	     -0.16901241	     -0.80096648	      0.86804557	     -0.13732165	     -0.67176559	      0.80604231	     -0.08449881	     -0.51028094	      0.74403906	     -1.05629426	     -3.72653328	      5.51749604	      0.00000000	      0.00000000	      1.20306941	    -18.26990352	      6.90138444	     99.70902229	   -108.37321015	      8.15508530	    147.05630146	     15.42680010	     57.55113900	     22.58584134	     25.15914119	    -35.04214345	     13.02894284	    149.75453073	     88.36264933	     18.67343494	     15.83252351
      3.01694915	      1.26799787	      3.41840686	    103.08486275	      0.26914431	      0.78913535	      0.70450242	     -6.38959338	      6.33142361	    -33.48130026	      9.46721780	      0.16523412	     26.95844560	     17.52453790	      0.00000000	     -8.29569031	     -7.48070651	     20.51306496	      2.20285933	      0.03844715	     17.48548576	    -12.83585941	      0.00000000	     -0.14457292	     -0.37888074	      1.00928146	     -0.26848636	     -0.50391139	      1.07236155	     -0.23751884	     -0.92121063	      1.07236155	     -0.16523239	     -0.92121063	      0.88312128	     -0.13425041	     -0.77261361	      0.82004119	     -0.08260896	     -0.58688627	      0.75696110	     -1.03266988	     -4.28597472	      5.61332070	      0.00000000	      0.00000000	      0.48909635	    -17.62105823	      6.11757916	    103.87810615	   -108.32162038	      8.85096943	    146.18172838	     50.99377980	     58.87398940	     -8.60884985	     25.28277828	    -35.88906221	     14.60295449	    149.71451492	     88.42998368	     20.75428811	     18.82886530
      3.03389831	      1.15503916	      3.31609552	    102.89796938	      0.26943797	      0.78897875	      0.70530412	     -6.18599748	      6.10431622	    -33.38720962	      9.65484451	      0.16850883	     27.07776264	     17.53315072	      0.00000000	     -8.13504739	     -7.28610901	     19.82612394	      2.39837949	      0.04185962	     17.57867344	    -12.39368742	      0.00000000	     -0.14312185	     -0.39629522	      1.00097151	     -0.26579160	     -0.52707264	      1.06353223	     -0.23513489	     -0.96355219	      1.06353223	     -0.16357397	     -0.96355219	      0.87585007	     -0.13290295	     -0.80812521	      0.81328935	     -0.08177983	     -0.61386129	      0.75072863	     -1.02230509	     -4.48297075	      5.56710324	      0.00000000	      0.00000000	      0.19017390	    -17.42117428	      5.92953645	    105.47024603	   -108.16749572	      9.30994695	    146.68396689	     59.37458174	     58.59785387	    -15.98411388	     24.62960191	    -36.49346352	     13.17118163	    149.71143977	     88.28438294	     22.42293342	     17.94793715
      3.05084746	      1.25602911	      3.18023795	    102.78119431	      0.26905266	      0.78877901	      0.70634850	     -5.88934777	      6.05835720	    -33.31536574	      9.85455227	      0.17199438	     27.04893520	     17.53172378	      0.00000000	     -7.87631026	     -7.27747705	     19.40485433	      2.59246385	      0.04524703	     17.57246232	    -12.33299433	      0.00000000	     -0.13837592	     -0.37005972	      0.96530280	     -0.25697791	     -0.49217942	      1.02563423	     -0.22733779	     -0.89976319	      1.02563423	     -0.15814983	     -0.89976319	      0.84463995	     -0.12849588	     -0.75462577	      0.78430853	     -0.07906800	     -0.57322250	      0.72397710	     -0.98840533	     -4.18618951	      5.36872459	      0.00000000	      0.00000000	      0.39307173	    -17.54940649	      6.49183008	    105.08449037	   -108.01952995	      8.31292232	    147.57506680	     61.97290945	     58.36998178	    -18.10810339	     23.41003942	    -36.65436493	      8.91367925	    149.74435291	     87.92275210	     23.28607744	     13.23729882
